<?xml version="1.0" encoding="UTF-8" standalone="no"?>
<!DOCTYPE svg PUBLIC "-//W3C//DTD SVG 1.1//EN"
 "http://www.w3.org/Graphics/SVG/1.1/DTD/svg11.dtd">
<!-- Generated by graphviz version 2.38.0 (20140413.2041)
 -->
<!-- Title: %3 Pages: 1 -->
<svg width="312pt" height="243pt"
 viewBox="0.00 0.00 312.13 242.59" xmlns="http://www.w3.org/2000/svg" xmlns:xlink="http://www.w3.org/1999/xlink">
<g id="graph0" class="graph" transform="scale(1 1) rotate(0) translate(4 238.59)">
<title>%3</title>
<polygon fill="white" stroke="none" points="-4,4 -4,-238.59 308.128,-238.59 308.128,4 -4,4"/>
<!-- X -->
<g id="node1" class="node"><title>X</title>
<polygon fill="lightgray" stroke="black" points="22.7549,-234.59 -0.255427,-234.59 -0.255427,-217.59 22.7549,-217.59 22.7549,-234.59"/>
<text text-anchor="middle" x="11.2498" y="-223.39" font-family="Times,serif" font-size="9.00">X</text>
</g>
<!-- Theta -->
<g id="node2" class="node"><title>Theta</title>
<polygon fill="lightgray" stroke="black" points="198.74,-234.59 161.759,-234.59 161.759,-217.59 198.74,-217.59 198.74,-234.59"/>
<text text-anchor="middle" x="180.25" y="-223.39" font-family="Times,serif" font-size="9.00">Theta</text>
</g>
<!-- Force -->
<g id="node7" class="node"><title>Force</title>
<ellipse fill="lightblue" stroke="black" cx="119.25" cy="-155.786" rx="25.6085" ry="25.6085"/>
<text text-anchor="middle" x="119.25" y="-153.086" font-family="Times,serif" font-size="9.00">Force</text>
</g>
<!-- Theta&#45;&gt;Force -->
<g id="edge6" class="edge"><title>Theta&#45;&gt;Force</title>
<path fill="none" stroke="green" stroke-width="1.00584" d="M173.489,-217.519C166.16,-209.313 154.047,-195.749 143.124,-183.519"/>
<polygon fill="green" stroke="green" stroke-width="1.00584" points="145.452,-180.872 136.181,-175.745 140.231,-185.535 145.452,-180.872"/>
</g>
<!-- 2 -->
<g id="node8" class="node"><title>2</title>
<ellipse fill="white" stroke="black" cx="178.25" cy="-155.786" rx="14.4914" ry="14.4914"/>
<text text-anchor="middle" x="178.25" y="-153.086" font-family="Times,serif" font-size="9.00">2</text>
</g>
<!-- Theta&#45;&gt;2 -->
<g id="edge3" class="edge"><title>Theta&#45;&gt;2</title>
<path fill="none" stroke="red" stroke-width="0.148238" stroke-dasharray="1,5" d="M180.028,-217.519C179.769,-208.673 179.328,-193.6 178.949,-180.683"/>
<polygon fill="red" stroke="red" stroke-width="0.148238" points="182.443,-180.418 178.652,-170.525 175.446,-180.623 182.443,-180.418"/>
</g>
<!-- Phi -->
<g id="node3" class="node"><title>Phi</title>
<polygon fill="lightgray" stroke="black" points="244.256,-234.59 216.244,-234.59 216.244,-217.59 244.256,-217.59 244.256,-234.59"/>
<text text-anchor="middle" x="230.25" y="-223.39" font-family="Times,serif" font-size="9.00">Phi</text>
</g>
<!-- X dot -->
<g id="node4" class="node"><title>X dot</title>
<polygon fill="lightgray" stroke="black" points="76.5006,-234.59 39.9989,-234.59 39.9989,-217.59 76.5006,-217.59 76.5006,-234.59"/>
<text text-anchor="middle" x="58.2498" y="-223.39" font-family="Times,serif" font-size="9.00">X dot</text>
</g>
<!-- X dot&#45;&gt;Force -->
<g id="edge2" class="edge"><title>X dot&#45;&gt;Force</title>
<path fill="none" stroke="green" stroke-width="0.379488" d="M65.0109,-217.519C72.3393,-209.313 84.4529,-195.749 95.3753,-183.519"/>
<polygon fill="green" stroke="green" stroke-width="0.379488" points="98.268,-185.535 102.319,-175.745 93.047,-180.872 98.268,-185.535"/>
</g>
<!-- Theta dot -->
<g id="node5" class="node"><title>Theta dot</title>
<polygon fill="lightgray" stroke="black" points="144.488,-234.59 94.0114,-234.59 94.0114,-217.59 144.488,-217.59 144.488,-234.59"/>
<text text-anchor="middle" x="119.25" y="-223.39" font-family="Times,serif" font-size="9.00">Theta dot</text>
</g>
<!-- Theta dot&#45;&gt;Force -->
<g id="edge1" class="edge"><title>Theta dot&#45;&gt;Force</title>
<path fill="none" stroke="green" stroke-width="0.969557" d="M119.25,-217.519C119.25,-211.126 119.25,-201.48 119.25,-191.747"/>
<polygon fill="green" stroke="green" stroke-width="0.969557" points="122.75,-191.705 119.25,-181.705 115.75,-191.705 122.75,-191.705"/>
</g>
<!-- Theta dot&#45;&gt;2 -->
<g id="edge4" class="edge"><title>Theta dot&#45;&gt;2</title>
<path fill="none" stroke="red" stroke-width="0.39844" stroke-dasharray="1,5" d="M125.789,-217.519C134.535,-207.394 150.327,-189.112 162.307,-175.243"/>
<polygon fill="red" stroke="red" stroke-width="0.39844" points="165.288,-177.146 169.176,-167.29 159.991,-172.57 165.288,-177.146"/>
</g>
<!-- Phi dot -->
<g id="node6" class="node"><title>Phi dot</title>
<polygon fill="lightgray" stroke="black" points="304.007,-234.59 262.493,-234.59 262.493,-217.59 304.007,-217.59 304.007,-234.59"/>
<text text-anchor="middle" x="283.25" y="-223.39" font-family="Times,serif" font-size="9.00">Phi dot</text>
</g>
<!-- 6 -->
<g id="node10" class="node"><title>6</title>
<ellipse fill="white" stroke="black" cx="178.25" cy="-79.4871" rx="14.4914" ry="14.4914"/>
<text text-anchor="middle" x="178.25" y="-76.7871" font-family="Times,serif" font-size="9.00">6</text>
</g>
<!-- 2&#45;&gt;6 -->
<g id="edge5" class="edge"><title>2&#45;&gt;6</title>
<path fill="none" stroke="green" stroke-width="0.379453" d="M178.25,-141.159C178.25,-130.79 178.25,-116.268 178.25,-104.032"/>
<polygon fill="green" stroke="green" stroke-width="0.379453" points="181.75,-104.028 178.25,-94.0283 174.75,-104.028 181.75,-104.028"/>
</g>
<!-- 4 -->
<g id="node9" class="node"><title>4</title>
<ellipse fill="white" stroke="black" cx="178.25" cy="-14.4957" rx="14.4914" ry="14.4914"/>
<text text-anchor="middle" x="178.25" y="-11.7957" font-family="Times,serif" font-size="9.00">4</text>
</g>
<!-- 6&#45;&gt;4 -->
<g id="edge7" class="edge"><title>6&#45;&gt;4</title>
<path fill="none" stroke="red" stroke-width="0.132448" d="M178.25,-64.8189C178.25,-57.3898 178.25,-47.9876 178.25,-39.3894"/>
<polygon fill="red" stroke="red" stroke-width="0.132448" points="181.75,-39.1372 178.25,-29.1372 174.75,-39.1372 181.75,-39.1372"/>
</g>
</g>
</svg>
