<?xml version="1.0" encoding="UTF-8" standalone="no"?>
<!DOCTYPE svg PUBLIC "-//W3C//DTD SVG 1.1//EN"
 "http://www.w3.org/Graphics/SVG/1.1/DTD/svg11.dtd">
<!-- Generated by graphviz version 2.38.0 (20140413.2041)
 -->
<!-- Title: %3 Pages: 1 -->
<svg width="265pt" height="243pt"
 viewBox="0.00 0.00 265.00 242.59" xmlns="http://www.w3.org/2000/svg" xmlns:xlink="http://www.w3.org/1999/xlink">
<g id="graph0" class="graph" transform="scale(1 1) rotate(0) translate(4 238.59)">
<title>%3</title>
<polygon fill="white" stroke="none" points="-4,4 -4,-238.59 260.997,-238.59 260.997,4 -4,4"/>
<!-- X -->
<g id="node1" class="node"><title>X</title>
<polygon fill="lightgray" stroke="black" points="97.3834,-175.594 74.373,-175.594 74.373,-158.594 97.3834,-158.594 97.3834,-175.594"/>
<text text-anchor="middle" x="85.8782" y="-164.394" font-family="Times,serif" font-size="9.00">X</text>
</g>
<!-- 1 -->
<g id="node8" class="node"><title>1</title>
<ellipse fill="white" stroke="black" cx="104.878" cy="-102.103" rx="14.4914" ry="14.4914"/>
<text text-anchor="middle" x="104.878" y="-99.4027" font-family="Times,serif" font-size="9.00">1</text>
</g>
<!-- X&#45;&gt;1 -->
<g id="edge1" class="edge"><title>X&#45;&gt;1</title>
<path fill="none" stroke="green" stroke-width="0.237531" d="M88.2079,-158.37C90.6357,-150.321 94.5571,-137.32 97.9868,-125.95"/>
<polygon fill="green" stroke="green" stroke-width="0.237531" points="101.404,-126.739 100.941,-116.155 94.7026,-124.718 101.404,-126.739"/>
</g>
<!-- Theta -->
<g id="node2" class="node"><title>Theta</title>
<polygon fill="lightgray" stroke="black" points="189.369,-175.594 152.388,-175.594 152.388,-158.594 189.369,-158.594 189.369,-175.594"/>
<text text-anchor="middle" x="170.878" y="-164.394" font-family="Times,serif" font-size="9.00">Theta</text>
</g>
<!-- Theta&#45;&gt;1 -->
<g id="edge2" class="edge"><title>Theta&#45;&gt;1</title>
<path fill="none" stroke="red" stroke-width="0.800456" d="M162.785,-158.37C152.865,-148.902 135.767,-132.583 122.713,-120.125"/>
<polygon fill="red" stroke="red" stroke-width="0.800456" points="124.859,-117.335 115.209,-112.962 120.026,-122.399 124.859,-117.335"/>
</g>
<!-- 2 -->
<g id="node9" class="node"><title>2</title>
<ellipse fill="white" stroke="black" cx="200.878" cy="-102.103" rx="14.4914" ry="14.4914"/>
<text text-anchor="middle" x="200.878" y="-99.4027" font-family="Times,serif" font-size="9.00">2</text>
</g>
<!-- Theta&#45;&gt;2 -->
<g id="edge7" class="edge"><title>Theta&#45;&gt;2</title>
<path fill="none" stroke="green" stroke-width="0.247888" d="M174.557,-158.37C178.517,-150.054 184.995,-136.453 190.533,-124.824"/>
<polygon fill="green" stroke="green" stroke-width="0.247888" points="193.748,-126.213 194.888,-115.68 187.429,-123.203 193.748,-126.213"/>
</g>
<!-- Phi -->
<g id="node3" class="node"><title>Phi</title>
<polygon fill="lightgray" stroke="black" points="112.884,-234.59 84.8723,-234.59 84.8723,-217.59 112.884,-217.59 112.884,-234.59"/>
<text text-anchor="middle" x="98.8782" y="-223.39" font-family="Times,serif" font-size="9.00">Phi</text>
</g>
<!-- Phi&#45;&gt;1 -->
<g id="edge3" class="edge"><title>Phi&#45;&gt;1</title>
<path fill="none" stroke="green" stroke-width="0.315603" d="M100.49,-217.434C102.223,-208.78 104.866,-194.247 105.878,-181.59 107.338,-163.335 106.989,-142.618 106.329,-127.054"/>
<polygon fill="green" stroke="green" stroke-width="0.315603" points="109.808,-126.553 105.814,-116.74 102.817,-126.902 109.808,-126.553"/>
</g>
<!-- 3 -->
<g id="node10" class="node"><title>3</title>
<ellipse fill="white" stroke="black" cx="41.8782" cy="-167.094" rx="14.4914" ry="14.4914"/>
<text text-anchor="middle" x="41.8782" y="-164.394" font-family="Times,serif" font-size="9.00">3</text>
</g>
<!-- Phi&#45;&gt;3 -->
<g id="edge10" class="edge"><title>Phi&#45;&gt;3</title>
<path fill="none" stroke="green" stroke-width="0.753876" d="M90.9526,-217.165C82.6818,-208.895 69.4611,-195.675 58.8248,-185.039"/>
<polygon fill="green" stroke="green" stroke-width="0.753876" points="61.1906,-182.455 51.6444,-177.86 56.241,-187.405 61.1906,-182.455"/>
</g>
<!-- X dot -->
<g id="node4" class="node"><title>X dot</title>
<polygon fill="lightgray" stroke="black" points="167.129,-234.59 130.627,-234.59 130.627,-217.59 167.129,-217.59 167.129,-234.59"/>
<text text-anchor="middle" x="148.878" y="-223.39" font-family="Times,serif" font-size="9.00">X dot</text>
</g>
<!-- Theta dot -->
<g id="node5" class="node"><title>Theta dot</title>
<polygon fill="lightgray" stroke="black" points="257.117,-175.594 206.64,-175.594 206.64,-158.594 257.117,-158.594 257.117,-175.594"/>
<text text-anchor="middle" x="231.878" y="-164.394" font-family="Times,serif" font-size="9.00">Theta dot</text>
</g>
<!-- Theta dot&#45;&gt;1 -->
<g id="edge4" class="edge"><title>Theta dot&#45;&gt;1</title>
<path fill="none" stroke="red" stroke-width="0.140542" d="M216.305,-158.37C193.852,-147.233 152.283,-126.615 126.755,-113.954"/>
<polygon fill="red" stroke="red" stroke-width="0.140542" points="128.034,-110.681 117.52,-109.373 124.923,-116.952 128.034,-110.681"/>
</g>
<!-- Theta dot&#45;&gt;2 -->
<g id="edge11" class="edge"><title>Theta dot&#45;&gt;2</title>
<path fill="none" stroke="red" stroke-width="0.108558" d="M228.077,-158.37C223.985,-150.054 217.291,-136.453 211.568,-124.824"/>
<polygon fill="red" stroke="red" stroke-width="0.108558" points="214.624,-123.107 207.068,-115.68 208.343,-126.198 214.624,-123.107"/>
</g>
<!-- Phi dot -->
<g id="node6" class="node"><title>Phi dot</title>
<polygon fill="lightgray" stroke="black" points="41.6352,-234.59 0.121119,-234.59 0.121119,-217.59 41.6352,-217.59 41.6352,-234.59"/>
<text text-anchor="middle" x="20.8782" y="-223.39" font-family="Times,serif" font-size="9.00">Phi dot</text>
</g>
<!-- Phi dot&#45;&gt;1 -->
<g id="edge5" class="edge"><title>Phi dot&#45;&gt;1</title>
<path fill="none" stroke="green" stroke-width="0.121129" stroke-dasharray="1,5" d="M18.1601,-217.249C13.8054,-203.207 6.90344,-173.307 18.8782,-152.598 32.1571,-129.635 60.5766,-116.389 81.1181,-109.478"/>
<polygon fill="green" stroke="green" stroke-width="0.121129" points="82.2242,-112.8 90.744,-106.502 80.1563,-106.112 82.2242,-112.8"/>
</g>
<!-- Phi dot&#45;&gt;3 -->
<g id="edge8" class="edge"><title>Phi dot&#45;&gt;3</title>
<path fill="none" stroke="green" stroke-width="0.256362" d="M23.7981,-217.165C26.3142,-210.336 30.0735,-200.133 33.5136,-190.796"/>
<polygon fill="green" stroke="green" stroke-width="0.256362" points="36.874,-191.799 37.0472,-181.206 30.3057,-189.379 36.874,-191.799"/>
</g>
<!-- Force -->
<g id="node7" class="node"><title>Force</title>
<ellipse fill="lightblue" stroke="black" cx="104.878" cy="-25.8035" rx="25.6085" ry="25.6085"/>
<text text-anchor="middle" x="104.878" y="-23.1035" font-family="Times,serif" font-size="9.00">Force</text>
</g>
<!-- 1&#45;&gt;Force -->
<g id="edge6" class="edge"><title>1&#45;&gt;Force</title>
<path fill="none" stroke="red" stroke-width="0.500197" d="M104.878,-87.4751C104.878,-80.2308 104.878,-70.9592 104.878,-61.8561"/>
<polygon fill="red" stroke="red" stroke-width="0.500197" points="108.378,-61.7669 104.878,-51.7669 101.378,-61.767 108.378,-61.7669"/>
</g>
<!-- 3&#45;&gt;1 -->
<g id="edge9" class="edge"><title>3&#45;&gt;1</title>
<path fill="none" stroke="green" stroke-width="1.21588" d="M51.7219,-156.252C61.2821,-146.693 76.0004,-131.977 87.5277,-120.451"/>
<polygon fill="green" stroke="green" stroke-width="1.21588" points="90.2988,-122.63 94.8956,-113.084 85.3493,-117.679 90.2988,-122.63"/>
</g>
</g>
</svg>
