<?xml version="1.0" encoding="UTF-8" standalone="no"?>
<!DOCTYPE svg PUBLIC "-//W3C//DTD SVG 1.1//EN"
 "http://www.w3.org/Graphics/SVG/1.1/DTD/svg11.dtd">
<!-- Generated by graphviz version 2.38.0 (20140413.2041)
 -->
<!-- Title: %3 Pages: 1 -->
<svg width="359pt" height="255pt"
 viewBox="0.00 0.00 358.75 254.58" xmlns="http://www.w3.org/2000/svg" xmlns:xlink="http://www.w3.org/1999/xlink">
<g id="graph0" class="graph" transform="scale(1 1) rotate(0) translate(4 250.581)">
<title>%3</title>
<polygon fill="white" stroke="none" points="-4,4 -4,-250.581 354.745,-250.581 354.745,4 -4,4"/>
<!-- X -->
<g id="node1" class="node"><title>X</title>
<polygon fill="lightgray" stroke="black" points="22.7549,-240.586 -0.255427,-240.586 -0.255427,-223.586 22.7549,-223.586 22.7549,-240.586"/>
<text text-anchor="middle" x="11.2498" y="-229.386" font-family="Times,serif" font-size="9.00">X</text>
</g>
<!-- Theta -->
<g id="node2" class="node"><title>Theta</title>
<polygon fill="lightgray" stroke="black" points="76.7404,-240.586 39.7592,-240.586 39.7592,-223.586 76.7404,-223.586 76.7404,-240.586"/>
<text text-anchor="middle" x="58.2498" y="-229.386" font-family="Times,serif" font-size="9.00">Theta</text>
</g>
<!-- 1 -->
<g id="node8" class="node"><title>1</title>
<ellipse fill="white" stroke="black" cx="176.25" cy="-167.094" rx="14.4914" ry="14.4914"/>
<text text-anchor="middle" x="176.25" y="-164.394" font-family="Times,serif" font-size="9.00">1</text>
</g>
<!-- Theta&#45;&gt;1 -->
<g id="edge5" class="edge"><title>Theta&#45;&gt;1</title>
<path fill="none" stroke="green" stroke-width="0.765574" d="M72.7189,-223.362C93.2729,-212.389 131.065,-192.215 154.86,-179.512"/>
<polygon fill="green" stroke="green" stroke-width="0.765574" points="156.643,-182.528 163.817,-174.731 153.347,-176.353 156.643,-182.528"/>
</g>
<!-- 5 -->
<g id="node10" class="node"><title>5</title>
<ellipse fill="white" stroke="black" cx="58.2498" cy="-167.094" rx="14.4914" ry="14.4914"/>
<text text-anchor="middle" x="58.2498" y="-164.394" font-family="Times,serif" font-size="9.00">5</text>
</g>
<!-- Theta&#45;&gt;5 -->
<g id="edge4" class="edge"><title>Theta&#45;&gt;5</title>
<path fill="none" stroke="green" stroke-width="0.414209" stroke-dasharray="1,5" d="M58.2498,-223.362C58.2498,-215.494 58.2498,-202.896 58.2498,-191.714"/>
<polygon fill="green" stroke="green" stroke-width="0.414209" points="61.7499,-191.627 58.2498,-181.627 54.7499,-191.627 61.7499,-191.627"/>
</g>
<!-- Phi -->
<g id="node3" class="node"><title>Phi</title>
<polygon fill="lightgray" stroke="black" points="122.256,-240.586 94.2439,-240.586 94.2439,-223.586 122.256,-223.586 122.256,-240.586"/>
<text text-anchor="middle" x="108.25" y="-229.386" font-family="Times,serif" font-size="9.00">Phi</text>
</g>
<!-- Phi&#45;&gt;1 -->
<g id="edge11" class="edge"><title>Phi&#45;&gt;1</title>
<path fill="none" stroke="red" stroke-width="0.576676" d="M116.588,-223.362C127.023,-213.695 145.17,-196.885 158.717,-184.335"/>
<polygon fill="red" stroke="red" stroke-width="0.576676" points="161.112,-186.888 166.069,-177.525 156.355,-181.753 161.112,-186.888"/>
</g>
<!-- X dot -->
<g id="node4" class="node"><title>X dot</title>
<polygon fill="lightgray" stroke="black" points="176.501,-240.586 139.999,-240.586 139.999,-223.586 176.501,-223.586 176.501,-240.586"/>
<text text-anchor="middle" x="158.25" y="-229.386" font-family="Times,serif" font-size="9.00">X dot</text>
</g>
<!-- X dot&#45;&gt;1 -->
<g id="edge8" class="edge"><title>X dot&#45;&gt;1</title>
<path fill="none" stroke="red" stroke-width="0.593934" d="M160.457,-223.362C162.757,-215.313 166.472,-202.312 169.721,-190.941"/>
<polygon fill="red" stroke="red" stroke-width="0.593934" points="173.138,-191.723 172.52,-181.146 166.407,-189.799 173.138,-191.723"/>
</g>
<!-- Theta dot -->
<g id="node5" class="node"><title>Theta dot</title>
<polygon fill="lightgray" stroke="black" points="244.488,-240.586 194.011,-240.586 194.011,-223.586 244.488,-223.586 244.488,-240.586"/>
<text text-anchor="middle" x="219.25" y="-229.386" font-family="Times,serif" font-size="9.00">Theta dot</text>
</g>
<!-- Theta dot&#45;&gt;1 -->
<g id="edge1" class="edge"><title>Theta dot&#45;&gt;1</title>
<path fill="none" stroke="red" stroke-width="0.469194" d="M213.977,-223.362C208.044,-214.67 198.169,-200.204 190.01,-188.252"/>
<polygon fill="red" stroke="red" stroke-width="0.469194" points="192.728,-186.025 184.199,-179.739 186.947,-189.972 192.728,-186.025"/>
</g>
<!-- Phi dot -->
<g id="node6" class="node"><title>Phi dot</title>
<polygon fill="lightgray" stroke="black" points="304.007,-240.586 262.493,-240.586 262.493,-223.586 304.007,-223.586 304.007,-240.586"/>
<text text-anchor="middle" x="283.25" y="-229.386" font-family="Times,serif" font-size="9.00">Phi dot</text>
</g>
<!-- Force -->
<g id="node7" class="node"><title>Force</title>
<ellipse fill="lightblue" stroke="black" cx="229.25" cy="-90.7949" rx="25.6085" ry="25.6085"/>
<text text-anchor="middle" x="229.25" y="-88.0949" font-family="Times,serif" font-size="9.00">Force</text>
</g>
<!-- Phi dot&#45;&gt;Force -->
<g id="edge6" class="edge"><title>Phi dot&#45;&gt;Force</title>
<path fill="none" stroke="red" stroke-width="0.746359" stroke-dasharray="1,5" d="M280.192,-223.198C272.973,-204.578 254.537,-157.021 241.942,-124.533"/>
<polygon fill="red" stroke="red" stroke-width="0.746359" points="245.117,-123.042 238.239,-114.983 238.591,-125.572 245.117,-123.042"/>
</g>
<!-- Phi dot&#45;&gt;1 -->
<g id="edge2" class="edge"><title>Phi dot&#45;&gt;1</title>
<path fill="none" stroke="red" stroke-width="2.31769" d="M270.129,-223.362C251.949,-212.659 218.895,-193.199 197.256,-180.461"/>
<polygon fill="red" stroke="red" stroke-width="2.31769" points="198.878,-177.354 188.485,-175.297 195.327,-183.386 198.878,-177.354"/>
</g>
<!-- 4 -->
<g id="node9" class="node"><title>4</title>
<ellipse fill="white" stroke="black" cx="279.25" cy="-14.4957" rx="14.4914" ry="14.4914"/>
<text text-anchor="middle" x="279.25" y="-11.7957" font-family="Times,serif" font-size="9.00">4</text>
</g>
<!-- Phi dot&#45;&gt;4 -->
<g id="edge7" class="edge"><title>Phi dot&#45;&gt;4</title>
<path fill="none" stroke="green" stroke-width="0.141541" d="M283.107,-223.413C282.56,-193.907 280.577,-87.0146 279.687,-39.0608"/>
<polygon fill="green" stroke="green" stroke-width="0.141541" points="283.185,-38.9253 279.5,-28.992 276.186,-39.0552 283.185,-38.9253"/>
</g>
<!-- Force&#45;&gt;4 -->
<g id="edge9" class="edge"><title>Force&#45;&gt;4</title>
<path fill="none" stroke="green" stroke-width="0.932743" stroke-dasharray="1,5" d="M243.444,-68.7025C250.5,-58.2168 258.979,-45.6178 265.914,-35.3124"/>
<polygon fill="green" stroke="green" stroke-width="0.932743" points="268.857,-37.2078 271.537,-26.9573 263.05,-33.2996 268.857,-37.2078"/>
</g>
<!-- 7 -->
<g id="node12" class="node"><title>7</title>
<ellipse fill="white" stroke="black" cx="229.25" cy="-14.4957" rx="14.4914" ry="14.4914"/>
<text text-anchor="middle" x="229.25" y="-11.7957" font-family="Times,serif" font-size="9.00">7</text>
</g>
<!-- Force&#45;&gt;7 -->
<g id="edge10" class="edge"><title>Force&#45;&gt;7</title>
<path fill="none" stroke="red" stroke-width="0.321083" d="M229.25,-64.6406C229.25,-56.5365 229.25,-47.5793 229.25,-39.556"/>
<polygon fill="red" stroke="red" stroke-width="0.321083" points="232.75,-39.3618 229.25,-29.3619 225.75,-39.3619 232.75,-39.3618"/>
</g>
<!-- 1&#45;&gt;Force -->
<g id="edge3" class="edge"><title>1&#45;&gt;Force</title>
<path fill="none" stroke="green" stroke-width="0.919043" d="M184.299,-154.81C190.777,-145.728 200.176,-132.553 208.706,-120.595"/>
<polygon fill="green" stroke="green" stroke-width="0.919043" points="211.751,-122.352 214.709,-112.179 206.053,-118.287 211.751,-122.352"/>
</g>
<!-- 6 -->
<g id="node11" class="node"><title>6</title>
<ellipse fill="white" stroke="black" cx="336.25" cy="-232.086" rx="14.4914" ry="14.4914"/>
<text text-anchor="middle" x="336.25" y="-229.386" font-family="Times,serif" font-size="9.00">6</text>
</g>
</g>
</svg>
