<?xml version="1.0" encoding="UTF-8" standalone="no"?>
<!DOCTYPE svg PUBLIC "-//W3C//DTD SVG 1.1//EN"
 "http://www.w3.org/Graphics/SVG/1.1/DTD/svg11.dtd">
<!-- Generated by graphviz version 2.38.0 (20140413.2041)
 -->
<!-- Title: %3 Pages: 1 -->
<svg width="266pt" height="243pt"
 viewBox="0.00 0.00 266.37 242.59" xmlns="http://www.w3.org/2000/svg" xmlns:xlink="http://www.w3.org/1999/xlink">
<g id="graph0" class="graph" transform="scale(1 1) rotate(0) translate(4 238.59)">
<title>%3</title>
<polygon fill="white" stroke="none" points="-4,4 -4,-238.59 262.369,-238.59 262.369,4 -4,4"/>
<!-- X -->
<g id="node1" class="node"><title>X</title>
<polygon fill="lightgray" stroke="black" points="22.7549,-234.59 -0.255427,-234.59 -0.255427,-217.59 22.7549,-217.59 22.7549,-234.59"/>
<text text-anchor="middle" x="11.2498" y="-223.39" font-family="Times,serif" font-size="9.00">X</text>
</g>
<!-- Theta -->
<g id="node2" class="node"><title>Theta</title>
<polygon fill="lightgray" stroke="black" points="190.74,-234.59 153.759,-234.59 153.759,-217.59 190.74,-217.59 190.74,-234.59"/>
<text text-anchor="middle" x="172.25" y="-223.39" font-family="Times,serif" font-size="9.00">Theta</text>
</g>
<!-- 1 -->
<g id="node8" class="node"><title>1</title>
<ellipse fill="white" stroke="black" cx="122.25" cy="-167.094" rx="14.4914" ry="14.4914"/>
<text text-anchor="middle" x="122.25" y="-164.394" font-family="Times,serif" font-size="9.00">1</text>
</g>
<!-- Theta&#45;&gt;1 -->
<g id="edge1" class="edge"><title>Theta&#45;&gt;1</title>
<path fill="none" stroke="green" stroke-width="0.59541" d="M165.297,-217.165C158.353,-209.248 147.429,-196.797 138.324,-186.418"/>
<polygon fill="green" stroke="green" stroke-width="0.59541" points="140.748,-183.874 131.523,-178.664 135.486,-188.49 140.748,-183.874"/>
</g>
<!-- 2 -->
<g id="node9" class="node"><title>2</title>
<ellipse fill="white" stroke="black" cx="164.25" cy="-102.103" rx="14.4914" ry="14.4914"/>
<text text-anchor="middle" x="164.25" y="-99.4027" font-family="Times,serif" font-size="9.00">2</text>
</g>
<!-- Theta&#45;&gt;2 -->
<g id="edge8" class="edge"><title>Theta&#45;&gt;2</title>
<path fill="none" stroke="green" stroke-width="0.322651" d="M171.749,-217.459C170.584,-199.685 167.648,-154.914 165.814,-126.956"/>
<polygon fill="green" stroke="green" stroke-width="0.322651" points="169.296,-126.562 165.149,-116.813 162.311,-127.021 169.296,-126.562"/>
</g>
<!-- Phi -->
<g id="node3" class="node"><title>Phi</title>
<polygon fill="lightgray" stroke="black" points="220.256,-175.594 192.244,-175.594 192.244,-158.594 220.256,-158.594 220.256,-175.594"/>
<text text-anchor="middle" x="206.25" y="-164.394" font-family="Times,serif" font-size="9.00">Phi</text>
</g>
<!-- Phi&#45;&gt;2 -->
<g id="edge7" class="edge"><title>Phi&#45;&gt;2</title>
<path fill="none" stroke="red" stroke-width="0.88515" d="M201.1,-158.37C195.305,-149.679 185.659,-135.213 177.69,-123.261"/>
<polygon fill="red" stroke="red" stroke-width="0.88515" points="180.474,-121.127 172.014,-114.748 174.65,-125.01 180.474,-121.127"/>
</g>
<!-- X dot -->
<g id="node4" class="node"><title>X dot</title>
<polygon fill="lightgray" stroke="black" points="76.5006,-234.59 39.9989,-234.59 39.9989,-217.59 76.5006,-217.59 76.5006,-234.59"/>
<text text-anchor="middle" x="58.2498" y="-223.39" font-family="Times,serif" font-size="9.00">X dot</text>
</g>
<!-- X dot&#45;&gt;1 -->
<g id="edge2" class="edge"><title>X dot&#45;&gt;1</title>
<path fill="none" stroke="red" stroke-width="0.235163" d="M66.8811,-217.403C76.3066,-209.009 91.6797,-195.319 103.838,-184.49"/>
<polygon fill="red" stroke="red" stroke-width="0.235163" points="106.49,-186.816 111.63,-177.552 101.834,-181.589 106.49,-186.816"/>
</g>
<!-- Theta dot -->
<g id="node5" class="node"><title>Theta dot</title>
<polygon fill="lightgray" stroke="black" points="258.488,-234.59 208.011,-234.59 208.011,-217.59 258.488,-217.59 258.488,-234.59"/>
<text text-anchor="middle" x="233.25" y="-223.39" font-family="Times,serif" font-size="9.00">Theta dot</text>
</g>
<!-- Phi dot -->
<g id="node6" class="node"><title>Phi dot</title>
<polygon fill="lightgray" stroke="black" points="136.007,-234.59 94.4927,-234.59 94.4927,-217.59 136.007,-217.59 136.007,-234.59"/>
<text text-anchor="middle" x="115.25" y="-223.39" font-family="Times,serif" font-size="9.00">Phi dot</text>
</g>
<!-- Phi dot&#45;&gt;1 -->
<g id="edge3" class="edge"><title>Phi dot&#45;&gt;1</title>
<path fill="none" stroke="red" stroke-width="1.64445" d="M116.223,-217.165C117.033,-210.569 118.23,-200.826 119.344,-191.756"/>
<polygon fill="red" stroke="red" stroke-width="1.64445" points="122.84,-191.999 120.585,-181.646 115.892,-191.145 122.84,-191.999"/>
</g>
<!-- Force -->
<g id="node7" class="node"><title>Force</title>
<ellipse fill="lightblue" stroke="black" cx="143.25" cy="-25.8035" rx="25.6085" ry="25.6085"/>
<text text-anchor="middle" x="143.25" y="-23.1035" font-family="Times,serif" font-size="9.00">Force</text>
</g>
<!-- 1&#45;&gt;Force -->
<g id="edge4" class="edge"><title>1&#45;&gt;Force</title>
<path fill="none" stroke="red" stroke-width="0.188979" stroke-dasharray="1,5" d="M124.263,-152.738C127.404,-131.907 133.57,-91.0074 138.025,-61.4594"/>
<polygon fill="red" stroke="red" stroke-width="0.188979" points="141.491,-61.9429 139.521,-51.5329 134.57,-60.8993 141.491,-61.9429"/>
</g>
<!-- 1&#45;&gt;2 -->
<g id="edge5" class="edge"><title>1&#45;&gt;2</title>
<path fill="none" stroke="green" stroke-width="0.374365" d="M129.953,-154.541C135.814,-145.75 144.023,-133.438 150.94,-123.064"/>
<polygon fill="green" stroke="green" stroke-width="0.374365" points="153.96,-124.845 156.595,-114.583 148.136,-120.962 153.96,-124.845"/>
</g>
<!-- 2&#45;&gt;Force -->
<g id="edge6" class="edge"><title>2&#45;&gt;Force</title>
<path fill="none" stroke="green" stroke-width="0.500445" d="M160.495,-87.8195C158.341,-80.1986 155.531,-70.254 152.805,-60.612"/>
<polygon fill="green" stroke="green" stroke-width="0.500445" points="156.116,-59.4547 150.028,-50.7837 149.379,-61.3587 156.116,-59.4547"/>
</g>
</g>
</svg>
