<?xml version="1.0" encoding="UTF-8" standalone="no"?>
<!DOCTYPE svg PUBLIC "-//W3C//DTD SVG 1.1//EN"
 "http://www.w3.org/Graphics/SVG/1.1/DTD/svg11.dtd">
<!-- Generated by graphviz version 2.38.0 (20140413.2041)
 -->
<!-- Title: %3 Pages: 1 -->
<svg width="312pt" height="113pt"
 viewBox="0.00 0.00 312.37 112.61" xmlns="http://www.w3.org/2000/svg" xmlns:xlink="http://www.w3.org/1999/xlink">
<g id="graph0" class="graph" transform="scale(1 1) rotate(0) translate(4 108.607)">
<title>%3</title>
<polygon fill="white" stroke="none" points="-4,4 -4,-108.607 308.369,-108.607 308.369,4 -4,4"/>
<!-- X -->
<g id="node1" class="node"><title>X</title>
<polygon fill="lightgray" stroke="black" points="22.7549,-104.607 -0.255427,-104.607 -0.255427,-87.6071 22.7549,-87.6071 22.7549,-104.607"/>
<text text-anchor="middle" x="11.2498" y="-93.4071" font-family="Times,serif" font-size="9.00">X</text>
</g>
<!-- Theta -->
<g id="node2" class="node"><title>Theta</title>
<polygon fill="lightgray" stroke="black" points="76.7404,-104.607 39.7592,-104.607 39.7592,-87.6071 76.7404,-87.6071 76.7404,-104.607"/>
<text text-anchor="middle" x="58.2498" y="-93.4071" font-family="Times,serif" font-size="9.00">Theta</text>
</g>
<!-- Force -->
<g id="node7" class="node"><title>Force</title>
<ellipse fill="lightblue" stroke="black" cx="133.25" cy="-25.8035" rx="25.6085" ry="25.6085"/>
<text text-anchor="middle" x="133.25" y="-23.1035" font-family="Times,serif" font-size="9.00">Force</text>
</g>
<!-- Theta&#45;&gt;Force -->
<g id="edge2" class="edge"><title>Theta&#45;&gt;Force</title>
<path fill="none" stroke="green" stroke-width="0.642265" d="M66.5626,-87.5364C76.2809,-78.6858 92.8435,-63.6021 107.031,-50.6816"/>
<polygon fill="green" stroke="green" stroke-width="0.642265" points="109.573,-53.1005 114.61,-43.7794 104.859,-47.925 109.573,-53.1005"/>
</g>
<!-- Phi -->
<g id="node3" class="node"><title>Phi</title>
<polygon fill="lightgray" stroke="black" points="122.256,-104.607 94.2439,-104.607 94.2439,-87.6071 122.256,-87.6071 122.256,-104.607"/>
<text text-anchor="middle" x="108.25" y="-93.4071" font-family="Times,serif" font-size="9.00">Phi</text>
</g>
<!-- Phi&#45;&gt;Force -->
<g id="edge3" class="edge"><title>Phi&#45;&gt;Force</title>
<path fill="none" stroke="red" stroke-width="0.72755" d="M111.021,-87.5364C113.532,-80.6754 117.414,-70.0687 121.236,-59.6277"/>
<polygon fill="red" stroke="red" stroke-width="0.72755" points="124.537,-60.7915 124.687,-50.1978 117.963,-58.3855 124.537,-60.7915"/>
</g>
<!-- X dot -->
<g id="node4" class="node"><title>X dot</title>
<polygon fill="lightgray" stroke="black" points="176.501,-104.607 139.999,-104.607 139.999,-87.6071 176.501,-87.6071 176.501,-104.607"/>
<text text-anchor="middle" x="158.25" y="-93.4071" font-family="Times,serif" font-size="9.00">X dot</text>
</g>
<!-- X dot&#45;&gt;Force -->
<g id="edge4" class="edge"><title>X dot&#45;&gt;Force</title>
<path fill="none" stroke="red" stroke-width="0.168856" d="M155.479,-87.5364C152.968,-80.6754 149.085,-70.0687 145.264,-59.6277"/>
<polygon fill="red" stroke="red" stroke-width="0.168856" points="148.536,-58.3855 141.812,-50.1978 141.963,-60.7915 148.536,-58.3855"/>
</g>
<!-- Theta dot -->
<g id="node5" class="node"><title>Theta dot</title>
<polygon fill="lightgray" stroke="black" points="304.488,-104.607 254.011,-104.607 254.011,-87.6071 304.488,-87.6071 304.488,-104.607"/>
<text text-anchor="middle" x="279.25" y="-93.4071" font-family="Times,serif" font-size="9.00">Theta dot</text>
</g>
<!-- Phi dot -->
<g id="node6" class="node"><title>Phi dot</title>
<polygon fill="lightgray" stroke="black" points="236.007,-104.607 194.493,-104.607 194.493,-87.6071 236.007,-87.6071 236.007,-104.607"/>
<text text-anchor="middle" x="215.25" y="-93.4071" font-family="Times,serif" font-size="9.00">Phi dot</text>
</g>
<!-- Phi dot&#45;&gt;Force -->
<g id="edge1" class="edge"><title>Phi dot&#45;&gt;Force</title>
<path fill="none" stroke="red" stroke-width="0.537103" d="M206.161,-87.5364C195.224,-78.4264 176.359,-62.7125 160.559,-49.5513"/>
<polygon fill="red" stroke="red" stroke-width="0.537103" points="162.558,-46.6609 152.634,-42.9499 158.077,-52.0394 162.558,-46.6609"/>
</g>
</g>
</svg>
