<?xml version="1.0" encoding="UTF-8" standalone="no"?>
<!DOCTYPE svg PUBLIC "-//W3C//DTD SVG 1.1//EN"
 "http://www.w3.org/Graphics/SVG/1.1/DTD/svg11.dtd">
<!-- Generated by graphviz version 2.38.0 (20140413.2041)
 -->
<!-- Title: %3 Pages: 1 -->
<svg width="407pt" height="243pt"
 viewBox="0.00 0.00 407.13 242.59" xmlns="http://www.w3.org/2000/svg" xmlns:xlink="http://www.w3.org/1999/xlink">
<g id="graph0" class="graph" transform="scale(1 1) rotate(0) translate(4 238.59)">
<title>%3</title>
<polygon fill="white" stroke="none" points="-4,4 -4,-238.59 403.128,-238.59 403.128,4 -4,4"/>
<!-- X -->
<g id="node1" class="node"><title>X</title>
<polygon fill="lightgray" stroke="black" points="22.7549,-234.59 -0.255427,-234.59 -0.255427,-217.59 22.7549,-217.59 22.7549,-234.59"/>
<text text-anchor="middle" x="11.2498" y="-223.39" font-family="Times,serif" font-size="9.00">X</text>
</g>
<!-- Theta -->
<g id="node2" class="node"><title>Theta</title>
<polygon fill="lightgray" stroke="black" points="76.7404,-234.59 39.7592,-234.59 39.7592,-217.59 76.7404,-217.59 76.7404,-234.59"/>
<text text-anchor="middle" x="58.2498" y="-223.39" font-family="Times,serif" font-size="9.00">Theta</text>
</g>
<!-- 1 -->
<g id="node8" class="node"><title>1</title>
<ellipse fill="white" stroke="black" cx="188.25" cy="-102.103" rx="14.4914" ry="14.4914"/>
<text text-anchor="middle" x="188.25" y="-99.4027" font-family="Times,serif" font-size="9.00">1</text>
</g>
<!-- Theta&#45;&gt;1 -->
<g id="edge1" class="edge"><title>Theta&#45;&gt;1</title>
<path fill="none" stroke="green" stroke-width="0.614335" d="M55.3556,-217.488C50.4902,-203.309 42.4807,-172.467 56.2498,-152.598 80.4428,-117.689 132.494,-107.364 163.516,-104.335"/>
<polygon fill="green" stroke="green" stroke-width="0.614335" points="163.84,-107.82 173.532,-103.539 163.286,-100.842 163.84,-107.82"/>
</g>
<!-- 4 -->
<g id="node11" class="node"><title>4</title>
<ellipse fill="white" stroke="black" cx="79.2498" cy="-167.094" rx="14.4914" ry="14.4914"/>
<text text-anchor="middle" x="79.2498" y="-164.394" font-family="Times,serif" font-size="9.00">4</text>
</g>
<!-- Theta&#45;&gt;4 -->
<g id="edge11" class="edge"><title>Theta&#45;&gt;4</title>
<path fill="none" stroke="green" stroke-width="0.17896" d="M61.1697,-217.165C63.6857,-210.336 67.4451,-200.133 70.8852,-190.796"/>
<polygon fill="green" stroke="green" stroke-width="0.17896" points="74.2456,-191.799 74.4188,-181.206 67.6772,-189.379 74.2456,-191.799"/>
</g>
<!-- Phi -->
<g id="node3" class="node"><title>Phi</title>
<polygon fill="lightgray" stroke="black" points="139.256,-175.594 111.244,-175.594 111.244,-158.594 139.256,-158.594 139.256,-175.594"/>
<text text-anchor="middle" x="125.25" y="-164.394" font-family="Times,serif" font-size="9.00">Phi</text>
</g>
<!-- Phi&#45;&gt;1 -->
<g id="edge7" class="edge"><title>Phi&#45;&gt;1</title>
<path fill="none" stroke="green" stroke-width="0.245109" d="M132.975,-158.37C142.444,-148.902 158.765,-132.583 171.225,-120.125"/>
<polygon fill="green" stroke="green" stroke-width="0.245109" points="173.792,-122.508 178.389,-112.962 168.842,-117.558 173.792,-122.508"/>
</g>
<!-- X dot -->
<g id="node4" class="node"><title>X dot</title>
<polygon fill="lightgray" stroke="black" points="206.501,-234.59 169.999,-234.59 169.999,-217.59 206.501,-217.59 206.501,-234.59"/>
<text text-anchor="middle" x="188.25" y="-223.39" font-family="Times,serif" font-size="9.00">X dot</text>
</g>
<!-- X dot&#45;&gt;1 -->
<g id="edge9" class="edge"><title>X dot&#45;&gt;1</title>
<path fill="none" stroke="red" stroke-width="0.266169" stroke-dasharray="1,5" d="M187.789,-217.393C187.293,-208.702 186.538,-194.136 186.25,-181.59 185.954,-168.708 185.99,-165.481 186.25,-152.598 186.417,-144.323 186.741,-135.273 187.081,-127.202"/>
<polygon fill="red" stroke="red" stroke-width="0.266169" points="190.588,-127.113 187.54,-116.966 183.595,-126.799 190.588,-127.113"/>
</g>
<!-- 2 -->
<g id="node9" class="node"><title>2</title>
<ellipse fill="white" stroke="black" cx="209.25" cy="-167.094" rx="14.4914" ry="14.4914"/>
<text text-anchor="middle" x="209.25" y="-164.394" font-family="Times,serif" font-size="9.00">2</text>
</g>
<!-- X dot&#45;&gt;2 -->
<g id="edge4" class="edge"><title>X dot&#45;&gt;2</title>
<path fill="none" stroke="red" stroke-width="0.264641" d="M191.17,-217.165C193.686,-210.336 197.445,-200.133 200.885,-190.796"/>
<polygon fill="red" stroke="red" stroke-width="0.264641" points="204.246,-191.799 204.419,-181.206 197.677,-189.379 204.246,-191.799"/>
</g>
<!-- 3 -->
<g id="node10" class="node"><title>3</title>
<ellipse fill="white" stroke="black" cx="256.25" cy="-167.094" rx="14.4914" ry="14.4914"/>
<text text-anchor="middle" x="256.25" y="-164.394" font-family="Times,serif" font-size="9.00">3</text>
</g>
<!-- X dot&#45;&gt;3 -->
<g id="edge10" class="edge"><title>X dot&#45;&gt;3</title>
<path fill="none" stroke="green" stroke-width="0.433101" d="M197.421,-217.403C207.65,-208.829 224.474,-194.728 237.516,-183.796"/>
<polygon fill="green" stroke="green" stroke-width="0.433101" points="240.017,-186.267 245.433,-177.161 235.52,-180.902 240.017,-186.267"/>
</g>
<!-- X dot&#45;&gt;4 -->
<g id="edge2" class="edge"><title>X dot&#45;&gt;4</title>
<path fill="none" stroke="green" stroke-width="0.3" d="M172.562,-217.52C155.206,-209.061 126.485,-194.813 102.25,-181.59 101.579,-181.224 100.899,-180.849 100.215,-180.468"/>
<polygon fill="green" stroke="green" stroke-width="0.3" points="101.76,-177.32 91.3442,-175.381 98.2776,-183.392 101.76,-177.32"/>
</g>
<!-- Theta dot -->
<g id="node5" class="node"><title>Theta dot</title>
<polygon fill="lightgray" stroke="black" points="339.488,-175.594 289.011,-175.594 289.011,-158.594 339.488,-158.594 339.488,-175.594"/>
<text text-anchor="middle" x="314.25" y="-164.394" font-family="Times,serif" font-size="9.00">Theta dot</text>
</g>
<!-- Theta dot&#45;&gt;1 -->
<g id="edge8" class="edge"><title>Theta dot&#45;&gt;1</title>
<path fill="none" stroke="green" stroke-width="0.594824" stroke-dasharray="1,5" d="M298.8,-158.37C276.523,-147.233 235.281,-126.615 209.955,-113.954"/>
<polygon fill="green" stroke="green" stroke-width="0.594824" points="211.301,-110.714 200.792,-109.373 208.171,-116.975 211.301,-110.714"/>
</g>
<!-- Phi dot -->
<g id="node6" class="node"><title>Phi dot</title>
<polygon fill="lightgray" stroke="black" points="399.007,-175.594 357.493,-175.594 357.493,-158.594 399.007,-158.594 399.007,-175.594"/>
<text text-anchor="middle" x="378.25" y="-164.394" font-family="Times,serif" font-size="9.00">Phi dot</text>
</g>
<!-- Phi dot&#45;&gt;1 -->
<g id="edge3" class="edge"><title>Phi dot&#45;&gt;1</title>
<path fill="none" stroke="red" stroke-width="0.489657" d="M362.521,-158.582C357.965,-156.525 352.951,-154.375 348.25,-152.598 300.806,-134.666 243.732,-118.191 212.179,-109.514"/>
<polygon fill="red" stroke="red" stroke-width="0.489657" points="212.708,-106.03 202.14,-106.78 210.869,-112.784 212.708,-106.03"/>
</g>
<!-- Force -->
<g id="node7" class="node"><title>Force</title>
<ellipse fill="lightblue" stroke="black" cx="188.25" cy="-25.8035" rx="25.6085" ry="25.6085"/>
<text text-anchor="middle" x="188.25" y="-23.1035" font-family="Times,serif" font-size="9.00">Force</text>
</g>
<!-- 1&#45;&gt;Force -->
<g id="edge12" class="edge"><title>1&#45;&gt;Force</title>
<path fill="none" stroke="green" stroke-width="0.792687" d="M188.25,-87.4751C188.25,-80.2308 188.25,-70.9592 188.25,-61.8561"/>
<polygon fill="green" stroke="green" stroke-width="0.792687" points="191.75,-61.7669 188.25,-51.7669 184.75,-61.767 191.75,-61.7669"/>
</g>
<!-- 2&#45;&gt;1 -->
<g id="edge6" class="edge"><title>2&#45;&gt;1</title>
<path fill="none" stroke="green" stroke-width="0.621932" d="M204.899,-153.042C202.28,-145.187 198.874,-134.97 195.825,-125.824"/>
<polygon fill="green" stroke="green" stroke-width="0.621932" points="199.078,-124.518 192.595,-116.138 192.438,-126.732 199.078,-124.518"/>
</g>
<!-- 3&#45;&gt;1 -->
<g id="edge5" class="edge"><title>3&#45;&gt;1</title>
<path fill="none" stroke="red" stroke-width="0.328053" d="M245.922,-156.527C235.438,-146.815 218.991,-131.58 206.34,-119.86"/>
<polygon fill="red" stroke="red" stroke-width="0.328053" points="208.389,-116.988 198.675,-112.76 203.632,-122.123 208.389,-116.988"/>
</g>
<!-- 4&#45;&gt;1 -->
<g id="edge13" class="edge"><title>4&#45;&gt;1</title>
<path fill="none" stroke="red" stroke-width="0.305845" d="M91.4138,-158.931C94.9087,-156.88 98.7272,-154.645 102.25,-152.598 124.368,-139.745 149.764,-125.149 167.192,-115.157"/>
<polygon fill="red" stroke="red" stroke-width="0.305845" points="169.047,-118.128 175.983,-110.119 165.567,-112.054 169.047,-118.128"/>
</g>
</g>
</svg>
