<?xml version="1.0" encoding="UTF-8" standalone="no"?>
<!DOCTYPE svg PUBLIC "-//W3C//DTD SVG 1.1//EN"
 "http://www.w3.org/Graphics/SVG/1.1/DTD/svg11.dtd">
<!-- Generated by graphviz version 2.38.0 (20140413.2041)
 -->
<!-- Title: %3 Pages: 1 -->
<svg width="312pt" height="113pt"
 viewBox="0.00 0.00 312.37 112.61" xmlns="http://www.w3.org/2000/svg" xmlns:xlink="http://www.w3.org/1999/xlink">
<g id="graph0" class="graph" transform="scale(1 1) rotate(0) translate(4 108.607)">
<title>%3</title>
<polygon fill="white" stroke="none" points="-4,4 -4,-108.607 308.369,-108.607 308.369,4 -4,4"/>
<!-- X -->
<g id="node1" class="node"><title>X</title>
<polygon fill="lightgray" stroke="black" points="22.7549,-104.607 -0.255427,-104.607 -0.255427,-87.6071 22.7549,-87.6071 22.7549,-104.607"/>
<text text-anchor="middle" x="11.2498" y="-93.4071" font-family="Times,serif" font-size="9.00">X</text>
</g>
<!-- Theta -->
<g id="node2" class="node"><title>Theta</title>
<polygon fill="lightgray" stroke="black" points="76.7404,-104.607 39.7592,-104.607 39.7592,-87.6071 76.7404,-87.6071 76.7404,-104.607"/>
<text text-anchor="middle" x="58.2498" y="-93.4071" font-family="Times,serif" font-size="9.00">Theta</text>
</g>
<!-- Force -->
<g id="node7" class="node"><title>Force</title>
<ellipse fill="lightblue" stroke="black" cx="112.25" cy="-25.8035" rx="25.6085" ry="25.6085"/>
<text text-anchor="middle" x="112.25" y="-23.1035" font-family="Times,serif" font-size="9.00">Force</text>
</g>
<!-- Theta&#45;&gt;Force -->
<g id="edge3" class="edge"><title>Theta&#45;&gt;Force</title>
<path fill="none" stroke="green" stroke-width="0.492949" d="M64.235,-87.5364C70.5268,-79.578 80.803,-66.5799 90.2374,-54.6465"/>
<polygon fill="green" stroke="green" stroke-width="0.492949" points="93.1189,-56.6452 96.5752,-46.63 87.6277,-52.3039 93.1189,-56.6452"/>
</g>
<!-- Phi -->
<g id="node3" class="node"><title>Phi</title>
<polygon fill="lightgray" stroke="black" points="236.256,-104.607 208.244,-104.607 208.244,-87.6071 236.256,-87.6071 236.256,-104.607"/>
<text text-anchor="middle" x="222.25" y="-93.4071" font-family="Times,serif" font-size="9.00">Phi</text>
</g>
<!-- 1 -->
<g id="node8" class="node"><title>1</title>
<ellipse fill="white" stroke="black" cx="222.25" cy="-25.8035" rx="14.4914" ry="14.4914"/>
<text text-anchor="middle" x="222.25" y="-23.1035" font-family="Times,serif" font-size="9.00">1</text>
</g>
<!-- Phi&#45;&gt;1 -->
<g id="edge1" class="edge"><title>Phi&#45;&gt;1</title>
<path fill="none" stroke="green" stroke-width="0.111022" d="M222.25,-87.5364C222.25,-78.6902 222.25,-63.6169 222.25,-50.7006"/>
<polygon fill="green" stroke="green" stroke-width="0.111022" points="225.75,-50.5423 222.25,-40.5423 218.75,-50.5424 225.75,-50.5423"/>
</g>
<!-- X dot -->
<g id="node4" class="node"><title>X dot</title>
<polygon fill="lightgray" stroke="black" points="130.501,-104.607 93.9989,-104.607 93.9989,-87.6071 130.501,-87.6071 130.501,-104.607"/>
<text text-anchor="middle" x="112.25" y="-93.4071" font-family="Times,serif" font-size="9.00">X dot</text>
</g>
<!-- X dot&#45;&gt;Force -->
<g id="edge2" class="edge"><title>X dot&#45;&gt;Force</title>
<path fill="none" stroke="red" stroke-width="0.263984" d="M112.25,-87.5364C112.25,-81.1432 112.25,-71.4977 112.25,-61.7645"/>
<polygon fill="red" stroke="red" stroke-width="0.263984" points="115.75,-61.7223 112.25,-51.7224 108.75,-61.7224 115.75,-61.7223"/>
</g>
<!-- Theta dot -->
<g id="node5" class="node"><title>Theta dot</title>
<polygon fill="lightgray" stroke="black" points="304.488,-104.607 254.011,-104.607 254.011,-87.6071 304.488,-87.6071 304.488,-104.607"/>
<text text-anchor="middle" x="279.25" y="-93.4071" font-family="Times,serif" font-size="9.00">Theta dot</text>
</g>
<!-- Phi dot -->
<g id="node6" class="node"><title>Phi dot</title>
<polygon fill="lightgray" stroke="black" points="190.007,-104.607 148.493,-104.607 148.493,-87.6071 190.007,-87.6071 190.007,-104.607"/>
<text text-anchor="middle" x="169.25" y="-93.4071" font-family="Times,serif" font-size="9.00">Phi dot</text>
</g>
<!-- Phi dot&#45;&gt;Force -->
<g id="edge4" class="edge"><title>Phi dot&#45;&gt;Force</title>
<path fill="none" stroke="red" stroke-width="1.50459" d="M162.932,-87.5364C156.132,-79.3876 144.922,-65.9548 134.771,-53.7915"/>
<polygon fill="red" stroke="red" stroke-width="1.50459" points="137.406,-51.4853 128.311,-46.05 132.031,-55.9704 137.406,-51.4853"/>
</g>
</g>
</svg>
