<?xml version="1.0" encoding="UTF-8" standalone="no"?>
<!DOCTYPE svg PUBLIC "-//W3C//DTD SVG 1.1//EN"
 "http://www.w3.org/Graphics/SVG/1.1/DTD/svg11.dtd">
<!-- Generated by graphviz version 2.38.0 (20140413.2041)
 -->
<!-- Title: %3 Pages: 1 -->
<svg width="532pt" height="187pt"
 viewBox="0.00 0.00 532.49 186.80" xmlns="http://www.w3.org/2000/svg" xmlns:xlink="http://www.w3.org/1999/xlink">
<g id="graph0" class="graph" transform="scale(1 1) rotate(0) translate(4 182.803)">
<title>%3</title>
<polygon fill="white" stroke="none" points="-4,4 -4,-182.803 528.494,-182.803 528.494,4 -4,4"/>
<!-- Price -->
<g id="node1" class="node"><title>Price</title>
<polygon fill="lightgray" stroke="black" points="34.7418,-178.803 -0.249656,-178.803 -0.249656,-161.803 34.7418,-161.803 34.7418,-178.803"/>
<text text-anchor="middle" x="17.2461" y="-167.603" font-family="Times,serif" font-size="9.00">Price</text>
</g>
<!-- Prev_Price -->
<g id="node2" class="node"><title>Prev_Price</title>
<polygon fill="lightgray" stroke="black" points="108.238,-178.803 52.2547,-178.803 52.2547,-161.803 108.238,-161.803 108.238,-178.803"/>
<text text-anchor="middle" x="80.2461" y="-167.603" font-family="Times,serif" font-size="9.00">Prev_Price</text>
</g>
<!-- 1 -->
<g id="node9" class="node"><title>1</title>
<ellipse fill="white" stroke="black" cx="349.246" cy="-111.307" rx="14.4914" ry="14.4914"/>
<text text-anchor="middle" x="349.246" y="-108.607" font-family="Times,serif" font-size="9.00">1</text>
</g>
<!-- Prev_Price&#45;&gt;1 -->
<g id="edge1" class="edge"><title>Prev_Price&#45;&gt;1</title>
<path fill="none" stroke="green" stroke-width="0.212096" d="M108.021,-163.418C160.921,-152.209 275.296,-127.975 325.173,-117.407"/>
<polygon fill="green" stroke="green" stroke-width="0.212096" points="326.003,-120.809 335.061,-115.312 324.552,-113.961 326.003,-120.809"/>
</g>
<!-- Immediate_Prev_Transaction -->
<g id="node3" class="node"><title>Immediate_Prev_Transaction</title>
<polygon fill="lightgray" stroke="black" points="248.396,-178.803 126.096,-178.803 126.096,-161.803 248.396,-161.803 248.396,-178.803"/>
<text text-anchor="middle" x="187.246" y="-167.603" font-family="Times,serif" font-size="9.00">Immediate_Prev_Transaction</text>
</g>
<!-- Immediate_Prev_Transaction&#45;&gt;1 -->
<g id="edge2" class="edge"><title>Immediate_Prev_Transaction&#45;&gt;1</title>
<path fill="none" stroke="green" stroke-width="0.107932" d="M208.758,-161.734C239.225,-151.015 294.717,-131.491 326.068,-120.462"/>
<polygon fill="green" stroke="green" stroke-width="0.107932" points="327.431,-123.692 335.703,-117.072 325.108,-117.089 327.431,-123.692"/>
</g>
<!-- Prev_Transaction -->
<g id="node4" class="node"><title>Prev_Transaction</title>
<polygon fill="lightgray" stroke="black" points="345.913,-178.803 266.579,-178.803 266.579,-161.803 345.913,-161.803 345.913,-178.803"/>
<text text-anchor="middle" x="306.246" y="-167.603" font-family="Times,serif" font-size="9.00">Prev_Transaction</text>
</g>
<!-- Prev_Transaction&#45;&gt;1 -->
<g id="edge3" class="edge"><title>Prev_Transaction&#45;&gt;1</title>
<path fill="none" stroke="red" stroke-width="0.202148" d="M312.225,-161.378C318.066,-153.635 327.18,-141.554 334.904,-131.317"/>
<polygon fill="red" stroke="red" stroke-width="0.202148" points="337.733,-133.379 340.962,-123.288 332.145,-129.163 337.733,-133.379"/>
</g>
<!-- Total_Value -->
<g id="node5" class="node"><title>Total_Value</title>
<polygon fill="lightgray" stroke="black" points="423.104,-178.803 363.389,-178.803 363.389,-161.803 423.104,-161.803 423.104,-178.803"/>
<text text-anchor="middle" x="393.246" y="-167.603" font-family="Times,serif" font-size="9.00">Total_Value</text>
</g>
<!-- Total_Value&#45;&gt;1 -->
<g id="edge4" class="edge"><title>Total_Value&#45;&gt;1</title>
<path fill="none" stroke="green" stroke-width="0.125701" d="M387.128,-161.378C381.151,-153.635 371.825,-141.554 363.922,-131.317"/>
<polygon fill="green" stroke="green" stroke-width="0.125701" points="366.605,-129.065 357.723,-123.288 361.064,-133.342 366.605,-129.065"/>
</g>
<!-- Day -->
<g id="node6" class="node"><title>Day</title>
<polygon fill="lightgray" stroke="black" points="471.74,-178.803 440.752,-178.803 440.752,-161.803 471.74,-161.803 471.74,-178.803"/>
<text text-anchor="middle" x="456.246" y="-167.603" font-family="Times,serif" font-size="9.00">Day</text>
</g>
<!-- Day&#45;&gt;1 -->
<g id="edge5" class="edge"><title>Day&#45;&gt;1</title>
<path fill="none" stroke="green" stroke-width="0.108314" d="M441.816,-161.616C423.513,-151.866 391.795,-134.972 370.665,-123.716"/>
<polygon fill="green" stroke="green" stroke-width="0.108314" points="372.259,-120.599 361.787,-118.987 368.968,-126.778 372.259,-120.599"/>
</g>
<!-- Hour -->
<g id="node7" class="node"><title>Hour</title>
<polygon fill="lightgray" stroke="black" points="524.746,-178.803 489.746,-178.803 489.746,-161.803 524.746,-161.803 524.746,-178.803"/>
<text text-anchor="middle" x="507.246" y="-167.603" font-family="Times,serif" font-size="9.00">Hour</text>
</g>
<!-- Hour&#45;&gt;1 -->
<g id="edge6" class="edge"><title>Hour&#45;&gt;1</title>
<path fill="none" stroke="green" stroke-width="0.164486" d="M489.734,-162.985C461.148,-152.673 404.453,-132.222 372.518,-120.702"/>
<polygon fill="green" stroke="green" stroke-width="0.164486" points="373.307,-117.266 362.713,-117.165 370.932,-123.85 373.307,-117.266"/>
</g>
<!-- Posture -->
<g id="node8" class="node"><title>Posture</title>
<ellipse fill="lightblue" stroke="black" cx="349.246" cy="-30.4056" rx="30.3115" ry="30.3115"/>
<text text-anchor="middle" x="349.246" y="-27.7056" font-family="Times,serif" font-size="9.00">Posture</text>
</g>
<!-- 1&#45;&gt;Posture -->
<g id="edge7" class="edge"><title>1&#45;&gt;Posture</title>
<path fill="none" stroke="green" stroke-width="0.153857" d="M349.246,-96.5633C349.246,-89.4418 349.246,-80.3406 349.246,-71.214"/>
<polygon fill="green" stroke="green" stroke-width="0.153857" points="352.746,-71.0029 349.246,-61.003 345.746,-71.003 352.746,-71.0029"/>
</g>
</g>
</svg>
