<?xml version="1.0" encoding="UTF-8" standalone="no"?>
<!DOCTYPE svg PUBLIC "-//W3C//DTD SVG 1.1//EN"
 "http://www.w3.org/Graphics/SVG/1.1/DTD/svg11.dtd">
<!-- Generated by graphviz version 2.38.0 (20140413.2041)
 -->
<!-- Title: %3 Pages: 1 -->
<svg width="279pt" height="477pt"
 viewBox="0.00 0.00 279.50 477.16" xmlns="http://www.w3.org/2000/svg" xmlns:xlink="http://www.w3.org/1999/xlink">
<g id="graph0" class="graph" transform="scale(1 1) rotate(0) translate(4 473.161)">
<title>%3</title>
<polygon fill="white" stroke="none" points="-4,4 -4,-473.161 275.496,-473.161 275.496,4 -4,4"/>
<!-- A -->
<g id="node1" class="node"><title>A</title>
<polygon fill="lightgray" stroke="black" points="139.505,-463.166 116.495,-463.166 116.495,-446.166 139.505,-446.166 139.505,-463.166"/>
<text text-anchor="middle" x="128" y="-451.966" font-family="Times,serif" font-size="9.00">A</text>
</g>
<!-- A XOR B -->
<g id="node3" class="node"><title>A XOR B</title>
<ellipse fill="lightblue" stroke="black" cx="140" cy="-166.407" rx="36.3494" ry="36.3494"/>
<text text-anchor="middle" x="140" y="-163.707" font-family="Times,serif" font-size="9.00">A XOR B</text>
</g>
<!-- A&#45;&gt;A XOR B -->
<g id="edge3" class="edge"><title>A&#45;&gt;A XOR B</title>
<path fill="none" stroke="red" stroke-width="1.27004" d="M128.321,-446.009C129.693,-413.28 135.129,-283.605 138.076,-213.301"/>
<polygon fill="red" stroke="red" stroke-width="1.27004" points="141.587,-213.102 138.509,-202.964 134.594,-212.809 141.587,-213.102"/>
</g>
<!-- 3 -->
<g id="node6" class="node"><title>3</title>
<ellipse fill="white" stroke="black" cx="170" cy="-389.674" rx="14.4914" ry="14.4914"/>
<text text-anchor="middle" x="170" y="-386.974" font-family="Times,serif" font-size="9.00">3</text>
</g>
<!-- A&#45;&gt;3 -->
<g id="edge2" class="edge"><title>A&#45;&gt;3</title>
<path fill="none" stroke="red" stroke-width="2.36109" d="M133.15,-445.942C138.945,-437.25 148.59,-422.784 156.56,-410.832"/>
<polygon fill="red" stroke="red" stroke-width="2.36109" points="159.6,-412.582 162.235,-402.32 153.776,-408.698 159.6,-412.582"/>
</g>
<!-- 5 -->
<g id="node8" class="node"><title>5</title>
<ellipse fill="white" stroke="black" cx="129" cy="-14.4957" rx="14.4914" ry="14.4914"/>
<text text-anchor="middle" x="129" y="-11.7957" font-family="Times,serif" font-size="9.00">5</text>
</g>
<!-- A&#45;&gt;5 -->
<g id="edge13" class="edge"><title>A&#45;&gt;5</title>
<path fill="none" stroke="green" stroke-width="0.155087" d="M116.641,-448.95C85.3145,-435.102 0,-391.361 0,-325.683 0,-325.683 0,-325.683 0,-165.407 0,-100.163 71.0733,-49.1809 107.71,-27.2352"/>
<polygon fill="green" stroke="green" stroke-width="0.155087" points="109.739,-30.1045 116.631,-22.0581 106.225,-24.0501 109.739,-30.1045"/>
</g>
<!-- B -->
<g id="node2" class="node"><title>B</title>
<polygon fill="lightgray" stroke="black" points="225.003,-463.166 202.997,-463.166 202.997,-446.166 225.003,-446.166 225.003,-463.166"/>
<text text-anchor="middle" x="214" y="-451.966" font-family="Times,serif" font-size="9.00">B</text>
</g>
<!-- B&#45;&gt;A XOR B -->
<g id="edge7" class="edge"><title>B&#45;&gt;A XOR B</title>
<path fill="none" stroke="red" stroke-width="1.37548" d="M219.493,-446.085C225.879,-436.761 236.048,-420.191 240,-404.17 243.846,-388.578 243.563,-327.194 238,-310.187 224.388,-268.574 194.551,-228.103 171.352,-200.939"/>
<polygon fill="red" stroke="red" stroke-width="1.37548" points="173.904,-198.54 164.698,-193.295 168.624,-203.136 173.904,-198.54"/>
</g>
<!-- B&#45;&gt;3 -->
<g id="edge4" class="edge"><title>B&#45;&gt;3</title>
<path fill="none" stroke="red" stroke-width="1.5384" d="M208.605,-445.942C202.534,-437.25 192.429,-422.784 184.08,-410.832"/>
<polygon fill="red" stroke="red" stroke-width="1.5384" points="186.73,-408.514 178.134,-402.32 180.992,-412.522 186.73,-408.514"/>
</g>
<!-- 1 -->
<g id="node4" class="node"><title>1</title>
<ellipse fill="white" stroke="black" cx="82" cy="-79.4871" rx="14.4914" ry="14.4914"/>
<text text-anchor="middle" x="82" y="-76.7871" font-family="Times,serif" font-size="9.00">1</text>
</g>
<!-- A XOR B&#45;&gt;1 -->
<g id="edge1" class="edge"><title>A XOR B&#45;&gt;1</title>
<path fill="none" stroke="red" stroke-width="0.340429" d="M119.714,-135.706C111.73,-124.017 102.775,-110.904 95.5947,-100.392"/>
<polygon fill="red" stroke="red" stroke-width="0.340429" points="98.3411,-98.207 89.8108,-91.9233 92.5607,-102.155 98.3411,-98.207"/>
</g>
<!-- A XOR B&#45;&gt;5 -->
<g id="edge12" class="edge"><title>A XOR B&#45;&gt;5</title>
<path fill="none" stroke="green" stroke-width="0.267943" d="M137.393,-129.88C135.344,-101.949 132.545,-63.8061 130.755,-39.4077"/>
<polygon fill="green" stroke="green" stroke-width="0.267943" points="134.232,-38.968 130.009,-29.251 127.251,-39.4803 134.232,-38.968"/>
</g>
<!-- 1&#45;&gt;5 -->
<g id="edge10" class="edge"><title>1&#45;&gt;5</title>
<path fill="none" stroke="red" stroke-width="0.416908" stroke-dasharray="1,5" d="M90.1868,-67.5148C96.8441,-58.5924 106.405,-45.7779 114.372,-35.1004"/>
<polygon fill="red" stroke="red" stroke-width="0.416908" points="117.416,-36.8743 120.591,-26.7664 111.805,-32.6882 117.416,-36.8743"/>
</g>
<!-- 2 -->
<g id="node5" class="node"><title>2</title>
<ellipse fill="white" stroke="black" cx="257" cy="-454.666" rx="14.4914" ry="14.4914"/>
<text text-anchor="middle" x="257" y="-451.966" font-family="Times,serif" font-size="9.00">2</text>
</g>
<!-- 3&#45;&gt;A XOR B -->
<g id="edge8" class="edge"><title>3&#45;&gt;A XOR B</title>
<path fill="none" stroke="red" stroke-width="3.076" d="M168.169,-375.166C163.884,-343.565 153.047,-263.64 146.133,-212.64"/>
<polygon fill="red" stroke="red" stroke-width="3.076" points="149.575,-211.976 144.763,-202.537 142.638,-212.916 149.575,-211.976"/>
</g>
<!-- 4 -->
<g id="node7" class="node"><title>4</title>
<ellipse fill="white" stroke="black" cx="215" cy="-324.683" rx="14.4914" ry="14.4914"/>
<text text-anchor="middle" x="215" y="-321.983" font-family="Times,serif" font-size="9.00">4</text>
</g>
<!-- 3&#45;&gt;4 -->
<g id="edge18" class="edge"><title>3&#45;&gt;4</title>
<path fill="none" stroke="red" stroke-width="0.280066" d="M178.045,-377.413C184.444,-368.455 193.548,-355.711 201.119,-345.114"/>
<polygon fill="red" stroke="red" stroke-width="0.280066" points="204.06,-347.019 207.025,-336.847 198.364,-342.95 204.06,-347.019"/>
</g>
<!-- 6 -->
<g id="node9" class="node"><title>6</title>
<ellipse fill="white" stroke="black" cx="84" cy="-324.683" rx="14.4914" ry="14.4914"/>
<text text-anchor="middle" x="84" y="-321.983" font-family="Times,serif" font-size="9.00">6</text>
</g>
<!-- 3&#45;&gt;6 -->
<g id="edge9" class="edge"><title>3&#45;&gt;6</title>
<path fill="none" stroke="red" stroke-width="0.107459" d="M158.757,-380.439C144.722,-370.159 120.488,-352.409 103.424,-339.91"/>
<polygon fill="red" stroke="red" stroke-width="0.107459" points="105.381,-337.006 95.2458,-333.92 101.245,-342.653 105.381,-337.006"/>
</g>
<!-- 6&#45;&gt;1 -->
<g id="edge5" class="edge"><title>6&#45;&gt;1</title>
<path fill="none" stroke="green" stroke-width="0.391411" stroke-dasharray="1,5" d="M75.8123,-312.57C69.2743,-302.962 60.6281,-288.415 57,-274.187 41.5194,-213.482 61.4065,-139.506 73.6734,-103.035"/>
<polygon fill="green" stroke="green" stroke-width="0.391411" points="77.0524,-103.975 77.042,-93.3801 70.4431,-101.669 77.0524,-103.975"/>
</g>
<!-- 10 -->
<g id="node13" class="node"><title>10</title>
<ellipse fill="white" stroke="black" cx="84" cy="-256.51" rx="17.8571" ry="17.8571"/>
<text text-anchor="middle" x="84" y="-253.81" font-family="Times,serif" font-size="9.00">10</text>
</g>
<!-- 6&#45;&gt;10 -->
<g id="edge6" class="edge"><title>6&#45;&gt;10</title>
<path fill="none" stroke="green" stroke-width="0.321586" d="M84,-309.972C84,-302.651 84,-293.377 84,-284.669"/>
<polygon fill="green" stroke="green" stroke-width="0.321586" points="87.5001,-284.497 84,-274.497 80.5001,-284.497 87.5001,-284.497"/>
</g>
<!-- 7 -->
<g id="node10" class="node"><title>7</title>
<ellipse fill="white" stroke="black" cx="209" cy="-79.4871" rx="14.4914" ry="14.4914"/>
<text text-anchor="middle" x="209" y="-76.7871" font-family="Times,serif" font-size="9.00">7</text>
</g>
<!-- 7&#45;&gt;5 -->
<g id="edge11" class="edge"><title>7&#45;&gt;5</title>
<path fill="none" stroke="green" stroke-width="0.365969" d="M197.876,-69.7284C184.98,-59.5741 163.51,-42.6684 147.964,-30.4278"/>
<polygon fill="green" stroke="green" stroke-width="0.365969" points="150.051,-27.6165 140.029,-24.18 145.721,-33.1163 150.051,-27.6165"/>
</g>
<!-- 8 -->
<g id="node11" class="node"><title>8</title>
<ellipse fill="white" stroke="black" cx="217" cy="-389.674" rx="14.4914" ry="14.4914"/>
<text text-anchor="middle" x="217" y="-386.974" font-family="Times,serif" font-size="9.00">8</text>
</g>
<!-- 8&#45;&gt;4 -->
<g id="edge17" class="edge"><title>8&#45;&gt;4</title>
<path fill="none" stroke="red" stroke-width="0.373598" d="M216.566,-375.006C216.33,-367.577 216.032,-358.175 215.759,-349.577"/>
<polygon fill="red" stroke="red" stroke-width="0.373598" points="219.249,-349.208 215.433,-339.325 212.252,-349.431 219.249,-349.208"/>
</g>
<!-- 9 -->
<g id="node12" class="node"><title>9</title>
<ellipse fill="white" stroke="black" cx="209" cy="-166.407" rx="14.4914" ry="14.4914"/>
<text text-anchor="middle" x="209" y="-163.707" font-family="Times,serif" font-size="9.00">9</text>
</g>
<!-- 9&#45;&gt;5 -->
<g id="edge16" class="edge"><title>9&#45;&gt;5</title>
<path fill="none" stroke="green" stroke-width="0.179344" stroke-dasharray="1,5" d="M202.588,-153.393C189.013,-127.955 157.224,-68.3838 140.211,-36.5038"/>
<polygon fill="green" stroke="green" stroke-width="0.179344" points="143.238,-34.742 135.442,-27.5674 137.062,-38.0376 143.238,-34.742"/>
</g>
<!-- 9&#45;&gt;7 -->
<g id="edge19" class="edge"><title>9&#45;&gt;7</title>
<path fill="none" stroke="red" stroke-width="0.357216" d="M209,-151.763C209,-139.012 209,-119.694 209,-104.385"/>
<polygon fill="red" stroke="red" stroke-width="0.357216" points="212.5,-104.097 209,-94.0971 205.5,-104.097 212.5,-104.097"/>
</g>
<!-- 10&#45;&gt;A XOR B -->
<g id="edge14" class="edge"><title>10&#45;&gt;A XOR B</title>
<path fill="none" stroke="green" stroke-width="0.337695" d="M93.2473,-240.961C99.2468,-231.523 107.372,-218.739 115.166,-206.477"/>
<polygon fill="green" stroke="green" stroke-width="0.337695" points="118.337,-208.013 120.748,-197.696 112.429,-204.258 118.337,-208.013"/>
</g>
<!-- 10&#45;&gt;1 -->
<g id="edge15" class="edge"><title>10&#45;&gt;1</title>
<path fill="none" stroke="green" stroke-width="0.184918" d="M83.8082,-238.728C83.4503,-207.402 82.6796,-139.961 82.2695,-104.075"/>
<polygon fill="green" stroke="green" stroke-width="0.184918" points="85.7688,-103.985 82.1547,-94.0252 78.7693,-104.065 85.7688,-103.985"/>
</g>
</g>
</svg>
