<?xml version="1.0" encoding="UTF-8" standalone="no"?>
<!DOCTYPE svg PUBLIC "-//W3C//DTD SVG 1.1//EN"
 "http://www.w3.org/Graphics/SVG/1.1/DTD/svg11.dtd">
<!-- Generated by graphviz version 2.38.0 (20140413.2041)
 -->
<!-- Title: %3 Pages: 1 -->
<svg width="81pt" height="199pt"
 viewBox="0.00 0.00 80.85 198.84" xmlns="http://www.w3.org/2000/svg" xmlns:xlink="http://www.w3.org/1999/xlink">
<g id="graph0" class="graph" transform="scale(1 1) rotate(0) translate(4 194.841)">
<title>%3</title>
<polygon fill="white" stroke="none" points="-4,4 -4,-194.841 76.8493,-194.841 76.8493,4 -4,4"/>
<!-- A -->
<g id="node1" class="node"><title>A</title>
<polygon fill="lightgray" stroke="black" points="26.9298,-190.841 3.91945,-190.841 3.91945,-173.841 26.9298,-173.841 26.9298,-190.841"/>
<text text-anchor="middle" x="15.4246" y="-179.641" font-family="Times,serif" font-size="9.00">A</text>
</g>
<!-- A XOR B -->
<g id="node3" class="node"><title>A XOR B</title>
<ellipse fill="lightblue" stroke="black" cx="36.4246" cy="-36.4246" rx="36.3494" ry="36.3494"/>
<text text-anchor="middle" x="36.4246" y="-33.7246" font-family="Times,serif" font-size="9.00">A XOR B</text>
</g>
<!-- A&#45;&gt;A XOR B -->
<g id="edge5" class="edge"><title>A&#45;&gt;A XOR B</title>
<path fill="none" stroke="red" stroke-width="1.46798" d="M14.9637,-173.644C14.4683,-164.953 13.7129,-150.387 13.4246,-137.841 13.1287,-124.959 11.4257,-121.578 13.4246,-108.849 14.894,-99.4928 17.3838,-89.69 20.1959,-80.4491"/>
<polygon fill="red" stroke="red" stroke-width="1.46798" points="23.6049,-81.2815 23.3409,-70.69 16.9423,-79.1344 23.6049,-81.2815"/>
</g>
<!-- 1 -->
<g id="node4" class="node"><title>1</title>
<ellipse fill="white" stroke="black" cx="36.4246" cy="-123.345" rx="14.4914" ry="14.4914"/>
<text text-anchor="middle" x="36.4246" y="-120.645" font-family="Times,serif" font-size="9.00">1</text>
</g>
<!-- A&#45;&gt;1 -->
<g id="edge2" class="edge"><title>A&#45;&gt;1</title>
<path fill="none" stroke="green" stroke-width="1.45821" d="M18.3446,-173.416C20.8606,-166.587 24.62,-156.384 28.0601,-147.047"/>
<polygon fill="green" stroke="green" stroke-width="1.45821" points="31.4205,-148.05 31.5936,-137.457 24.8521,-145.63 31.4205,-148.05"/>
</g>
<!-- B -->
<g id="node2" class="node"><title>B</title>
<polygon fill="lightgray" stroke="black" points="67.4276,-190.841 45.4217,-190.841 45.4217,-173.841 67.4276,-173.841 67.4276,-190.841"/>
<text text-anchor="middle" x="56.4246" y="-179.641" font-family="Times,serif" font-size="9.00">B</text>
</g>
<!-- B&#45;&gt;A XOR B -->
<g id="edge3" class="edge"><title>B&#45;&gt;A XOR B</title>
<path fill="none" stroke="green" stroke-width="1.45009" d="M57.1159,-173.648C57.8591,-164.962 58.9921,-150.399 59.4246,-137.841 59.8682,-124.963 61.4236,-121.578 59.4246,-108.849 57.9553,-99.4928 55.4655,-89.69 52.6534,-80.4491"/>
<polygon fill="green" stroke="green" stroke-width="1.45009" points="55.907,-79.1344 49.5084,-70.69 49.2444,-81.2815 55.907,-79.1344"/>
</g>
<!-- B&#45;&gt;1 -->
<g id="edge1" class="edge"><title>B&#45;&gt;1</title>
<path fill="none" stroke="red" stroke-width="1.63507" d="M53.6437,-173.416C51.2475,-166.587 47.6672,-156.384 44.3909,-147.047"/>
<polygon fill="red" stroke="red" stroke-width="1.63507" points="47.6393,-145.734 41.0256,-137.457 41.0342,-148.052 47.6393,-145.734"/>
</g>
<!-- 1&#45;&gt;A XOR B -->
<g id="edge4" class="edge"><title>1&#45;&gt;A XOR B</title>
<path fill="none" stroke="green" stroke-width="2.88151" d="M36.4246,-108.701C36.4246,-101.608 36.4246,-92.4842 36.4246,-83.1485"/>
<polygon fill="green" stroke="green" stroke-width="2.88151" points="39.9247,-83.0213 36.4246,-73.0214 32.9247,-83.0214 39.9247,-83.0213"/>
</g>
</g>
</svg>
